# xmcd
#
# Track frame offsets:
# 150
# 20994
# 35782
# 49885
# 67649
# 83430
# 99173
# 117649
# 132586
# 149666
# 166850
# 182801
#
# Disc length: 2688 seconds
#
#
# Revision: 0
# Processed by: cddbd v1.5.2PL0 Copyright (c) Steve Scherf et al.
# Submitted via: FreeRIP 2.945 
#
DISCID=a90a7e0c
DTITLE=Νίκος Παπάζογλου - Ελευθεροτυπία [CD 2) - Ελευθεροτυπία [CD 2)
DYEAR=1900
DGENRE=Ballad
TTITLE0=Πότε Βούδας πότε Κούδας (live)
TTITLE1=Με το τραγούδι με το κρασί
TTITLE2=Κανείς εδώ δεν τραγουδά
TTITLE3=Της Χιώτισσας
TTITLE4=ο μοναχός άνθρωπος
TTITLE5=Σ΄ένα μπαγλαμαδάκι
TTITLE6=Απόψε σιωπηλοί
TTITLE7=Σύνεργα
TTITLE8=Του φίλου
TTITLE9=Για μένα
TTITLE10=Χάρτινο καραβάκι
TTITLE11=Αχ, Ελλάδα (live)
EXTD=
EXTT0=
EXTT1=
EXTT2=
EXTT3=
EXTT4=
EXTT5=
EXTT6=
EXTT7=
EXTT8=
EXTT9=
EXTT10=
EXTT11=
PLAYORDER=
